<svg width="700" height="400" xmlns="http://www.w3.org/2000/svg"><g transform="translate(250,150)" class="slice"><path class="innerSlice" style="fill: rgb(40, 79, 159);" d="M 0 0 A 0 0 0 0 1 0 0 L 0 30 A 0 0 0 0 0 0 30 z"></path><path class="innerSlice" style="fill: rgb(171, 44, 14);" d="M 0 0 A 0 0 0 0 1 0 0 L 0 30 A 0 0 0 0 0 0 30 z"></path><path class="innerSlice" style="fill: rgb(199, 119, 0);" d="M 0 0 A 0 0 0 0 1 0 0 L 0 30 A 0 0 0 0 0 0 30 z"></path><path class="innerSlice" style="fill: rgb(12, 117, 19);" d="M 0 0 A 0 0 0 0 1 0 0 L 0 30 A 0 0 0 0 0 0 30 z"></path><path class="innerSlice" style="fill: rgb(119, 0, 119);" d="M 0 0 A 0 0 0 0 1 0 0 L 0 30 A 0 0 0 0 0 0 30 z"></path><path class="topSlice" style="fill: #3366CC; stroke: #3366CC;" d="M 130 0 A 130 100 0 0 1 -127.6026904088385 19.115862870137253 L 0 0 A 0 0 0 0 0 0 0 z"></path><path class="topSlice" style="fill: #DC3912; stroke: #DC3912;" d="M 83.63331089515144 -76.55863402011947 A 130 100 0 0 1 127.2735535281981 -20.372893179707514 L 0 0 A 0 0 0 0 0 0 0 z"></path><path class="topSlice" style="fill: #FF9900; stroke: #FF9900;" d="M 127.2735535281981 -20.372893179707514 A 130 100 0 0 1 130 6.432490598706547e-14 L 0 0 A 0 0 0 0 0 0 0 z"></path><path class="topSlice" style="fill: #109618; stroke: #109618;" d="M -58.64714261124349 -89.24573038877058 A 130 100 0 0 1 83.63331089515144 -76.55863402011947 L 0 0 A 0 0 0 0 0 0 0 z"></path><path class="topSlice" style="fill: #990099; stroke: #990099;" d="M -127.6026904088385 19.115862870137253 A 130 100 0 0 1 -58.64714261124349 -89.24573038877058 L 0 0 A 0 0 0 0 0 0 0 z"></path><path class="outerSlice" style="fill: rgb(40, 79, 159);" d="M 129.5 30 A 129.5 99.5 0 0 1 -127.11191083034296 49.02028355578656 L -127.11191083034296 19.020283555786566 A 129.5 99.5 0 0 0 129.5 0 z"></path><path class="outerSlice" style="fill: rgb(171, 44, 14);" d="M -129.5 30.00000000000001 A 129.5 99.5 0 0 1 -129.5 30.00000000000001 L -129.5 1.2185235651516165e-14 A 129.5 99.5 0 0 0 -129.5 1.2185235651516165e-14 z"></path><path class="outerSlice" style="fill: rgb(199, 119, 0);" d="M -129.5 30.00000000000001 A 129.5 99.5 0 0 1 -129.5 30.00000000000001 L -129.5 1.2185235651516165e-14 A 129.5 99.5 0 0 0 -129.5 1.2185235651516165e-14 z"></path><path class="outerSlice" style="fill: rgb(12, 117, 19);" d="M -129.5 30.00000000000001 A 129.5 99.5 0 0 1 -129.5 30.00000000000001 L -129.5 1.2185235651516165e-14 A 129.5 99.5 0 0 0 -129.5 1.2185235651516165e-14 z"></path><path class="outerSlice" style="fill: rgb(119, 0, 119);" d="M -127.11191083034296 49.02028355578656 A 129.5 99.5 0 0 1 -129.5 30.00000000000001 L -129.5 1.2185235651516165e-14 A 129.5 99.5 0 0 0 -127.11191083034296 19.020283555786566 z"></path><g transform="translate(300,-15)" class="legend"><rect width="10" height="10" fill="#3366CC"></rect><text y="10" x="11">MacOS : 230</text></g><g transform="translate(300,5)" class="legend"><rect width="10" height="10" fill="#DC3912"></rect><text y="10" x="11">ios : 52</text></g><g transform="translate(300,25)" class="legend"><rect width="10" height="10" fill="#FF9900"></rect><text y="10" x="11">Windows : 16</text></g><g transform="translate(300,45)" class="legend"><rect width="10" height="10" fill="#109618"></rect><text y="10" x="11">Android : 91</text></g><g transform="translate(300,65)" class="legend"><rect width="10" height="10" fill="#990099"></rect><text y="10" x="11">Arch : 101</text></g></g></svg>