<svg width="700" height="360" viewBox="-35 -25 550 550" xmlns="http://www.w3.org/2000/svg"><g transform="translate(50, 10)"><g fill="none" font-size="10" font-family="sans-serif" text-anchor="middle" transform="translate(0,360)"><path class="domain" stroke="currentColor" d="M0.5,6V0.5H700.5V6"></path><g class="tick" opacity="1" transform="translate(58.333333333333336,0)"><line stroke="currentColor" y2="6"></line><text fill="currentColor" y="10" dy="0.71em" x="25" text-anchor="beginning" transform="rotate(40)">India</text></g><g class="tick" opacity="1" transform="translate(175,0)"><line stroke="currentColor" y2="6"></line><text fill="currentColor" y="10" dy="0.71em" x="25" text-anchor="beginning" transform="rotate(40)">USA</text></g><g class="tick" opacity="1" transform="translate(291.6666666666667,0)"><line stroke="currentColor" y2="6"></line><text fill="currentColor" y="10" dy="0.71em" x="25" text-anchor="beginning" transform="rotate(40)">UK</text></g><g class="tick" opacity="1" transform="translate(408.3333333333333,0)"><line stroke="currentColor" y2="6"></line><text fill="currentColor" y="10" dy="0.71em" x="25" text-anchor="beginning" transform="rotate(40)">UAE</text></g><g class="tick" opacity="1" transform="translate(525,0)"><line stroke="currentColor" y2="6"></line><text fill="currentColor" y="10" dy="0.71em" x="25" text-anchor="beginning" transform="rotate(40)">France</text></g><g class="tick" opacity="1" transform="translate(641.6666666666667,0)"><line stroke="currentColor" y2="6"></line><text fill="currentColor" y="10" dy="0.71em" x="25" text-anchor="beginning" transform="rotate(40)">Germany</text></g><path d="M 0,0 H 700 L720 -20 H 20 L 0,0 Z" style="stroke: none; fill: #ccc;"></path></g><g fill="none" font-size="10" font-family="sans-serif" text-anchor="end" transform="translate(0,360)"><path class="domain" stroke="currentColor" d="M-6,0.5H0.5V-359.5H-6"></path><g class="tick" opacity="1" transform="translate(0,0.5)"><line stroke="currentColor" x2="-6"></line><text fill="currentColor" x="-9" dy="0.32em">0M</text></g><g class="tick" opacity="1" transform="translate(0,-57.564516129032256)"><line stroke="currentColor" x2="-6"></line><text fill="currentColor" x="-9" dy="0.32em">50M</text></g><g class="tick" opacity="1" transform="translate(0,-115.62903225806451)"><line stroke="currentColor" x2="-6"></line><text fill="currentColor" x="-9" dy="0.32em">100M</text></g><g class="tick" opacity="1" transform="translate(0,-173.69354838709677)"><line stroke="currentColor" x2="-6"></line><text fill="currentColor" x="-9" dy="0.32em">150M</text></g><g class="tick" opacity="1" transform="translate(0,-231.75806451612902)"><line stroke="currentColor" x2="-6"></line><text fill="currentColor" x="-9" dy="0.32em">200M</text></g><g class="tick" opacity="1" transform="translate(0,-289.8225806451613)"><line stroke="currentColor" x2="-6"></line><text fill="currentColor" x="-9" dy="0.32em">250M</text></g><g class="tick" opacity="1" transform="translate(0,-347.88709677419354)"><line stroke="currentColor" x2="-6"></line><text fill="currentColor" x="-9" dy="0.32em">300M</text></g><path d="M 0,0 V -360 L20 -380 V -20 L 0,0 Z" style="stroke: none; fill: #ccc;"></path></g><g transform="translate(0, 360)"><path d="M 0,0 V -360 H 50 V 0 H 0 Z" style="fill: #ee5252;"></path><path d="M 0,-360 L 20,-380 H 70 L 50,-360 Z" style="fill: #b23b3b;"></path><path d="M 50,0 L 70,-20, V -380 L 50,-360 Z" style="fill: #b23b3b;"></path></g><g transform="translate(116.66666666666667, 360)"><path d="M 0,0 V -142.83870967741933 H 50 V 0 H 0 Z" style="fill: #ee5252;"></path><path d="M 0,-142.83870967741933 L 20,-162.83870967741933 H 70 L 50,-142.83870967741933 Z" style="fill: #b23b3b;"></path><path d="M 50,0 L 70,-20, V -162.83870967741933 L 50,-142.83870967741933 Z" style="fill: #b23b3b;"></path></g><g transform="translate(233.33333333333334, 360)"><path d="M 0,0 V -164.9032258064516 H 50 V 0 H 0 Z" style="fill: #ee5252;"></path><path d="M 0,-164.9032258064516 L 20,-184.9032258064516 H 70 L 50,-164.9032258064516 Z" style="fill: #b23b3b;"></path><path d="M 50,0 L 70,-20, V -184.9032258064516 L 50,-164.9032258064516 Z" style="fill: #b23b3b;"></path></g><g transform="translate(350, 360)"><path d="M 0,0 V -27.870967741935488 H 50 V 0 H 0 Z" style="fill: #ee5252;"></path><path d="M 0,-27.870967741935488 L 20,-47.87096774193549 H 70 L 50,-27.870967741935488 Z" style="fill: #b23b3b;"></path><path d="M 50,0 L 70,-20, V -47.87096774193549 L 50,-27.870967741935488 Z" style="fill: #b23b3b;"></path></g><g transform="translate(466.6666666666667, 360)"><path d="M 0,0 V -281.0322580645161 H 50 V 0 H 0 Z" style="fill: #ee5252;"></path><path d="M 0,-281.0322580645161 L 20,-301.0322580645161 H 70 L 50,-281.0322580645161 Z" style="fill: #b23b3b;"></path><path d="M 50,0 L 70,-20, V -301.0322580645161 L 50,-281.0322580645161 Z" style="fill: #b23b3b;"></path></g><g transform="translate(583.3333333333334, 360)"><path d="M 0,0 V -153.29032258064515 H 50 V 0 H 0 Z" style="fill: #ee5252;"></path><path d="M 0,-153.29032258064515 L 20,-173.29032258064515 H 70 L 50,-153.29032258064515 Z" style="fill: #b23b3b;"></path><path d="M 50,0 L 70,-20, V -173.29032258064515 L 50,-153.29032258064515 Z" style="fill: #b23b3b;"></path></g></g></svg>