<svg width="700" height="360" viewBox="-35 -25 550 550" xmlns="http://www.w3.org/2000/svg"><g transform="translate(50, 10)"><g class="x axis" transform="translate(0, 360)" fill="none" font-size="10" font-family="sans-serif" text-anchor="middle"><path class="domain" stroke="currentColor" d="M0.5,6V0.5H700.5V6"></path><g class="tick" opacity="1" transform="translate(80.76923076923079,0)"><line stroke="currentColor" y2="6"></line><text fill="currentColor" y="10" dy="0.71em" x="20" text-anchor="beginning" transform="rotate(40)">India</text></g><g class="tick" opacity="1" transform="translate(188.46153846153848,0)"><line stroke="currentColor" y2="6"></line><text fill="currentColor" y="10" dy="0.71em" x="20" text-anchor="beginning" transform="rotate(40)">USA</text></g><g class="tick" opacity="1" transform="translate(296.1538461538462,0)"><line stroke="currentColor" y2="6"></line><text fill="currentColor" y="10" dy="0.71em" x="20" text-anchor="beginning" transform="rotate(40)">UK</text></g><g class="tick" opacity="1" transform="translate(403.84615384615387,0)"><line stroke="currentColor" y2="6"></line><text fill="currentColor" y="10" dy="0.71em" x="20" text-anchor="beginning" transform="rotate(40)">UAE</text></g><g class="tick" opacity="1" transform="translate(511.53846153846155,0)"><line stroke="currentColor" y2="6"></line><text fill="currentColor" y="10" dy="0.71em" x="20" text-anchor="beginning" transform="rotate(40)">France</text></g><g class="tick" opacity="1" transform="translate(619.2307692307693,0)"><line stroke="currentColor" y2="6"></line><text fill="currentColor" y="10" dy="0.71em" x="20" text-anchor="beginning" transform="rotate(40)">Germany</text></g></g><g class="y axis" fill="none" font-size="10" font-family="sans-serif" text-anchor="end"><path class="domain" stroke="currentColor" d="M-6,360.5H0.5V0.5H-6"></path><g class="tick" opacity="1" transform="translate(0,360.5)"><line stroke="currentColor" x2="-6"></line><text fill="currentColor" x="-9" dy="0.32em">0M</text></g><g class="tick" opacity="1" transform="translate(0,300.69933554817277)"><line stroke="currentColor" x2="-6"></line><text fill="currentColor" x="-9" dy="0.32em">50M</text></g><g class="tick" opacity="1" transform="translate(0,240.89867109634554)"><line stroke="currentColor" x2="-6"></line><text fill="currentColor" x="-9" dy="0.32em">100M</text></g><g class="tick" opacity="1" transform="translate(0,181.0980066445183)"><line stroke="currentColor" x2="-6"></line><text fill="currentColor" x="-9" dy="0.32em">150M</text></g><g class="tick" opacity="1" transform="translate(0,121.29734219269102)"><line stroke="currentColor" x2="-6"></line><text fill="currentColor" x="-9" dy="0.32em">200M</text></g><g class="tick" opacity="1" transform="translate(0,61.49667774086379)"><line stroke="currentColor" x2="-6"></line><text fill="currentColor" x="-9" dy="0.32em">250M</text></g><g class="tick" opacity="1" transform="translate(0,1.6960132890365527)"><line stroke="currentColor" x2="-6"></line><text fill="currentColor" x="-9" dy="0.32em">300M</text></g></g><g transform="translate(53.84615384615387, 360)"><path d="M 0,0 V -360 H 50 V 0 H 0 Z" style="fill: #ee5252;"></path><path d="M 0,-360 L 20,-380 H 70 L 50,-360 Z" style="fill: #b23b3b;"></path><path d="M 50,0 L 70,-20, V -380 L 50,-360 Z" style="fill: #b23b3b;"></path></g><g transform="translate(161.53846153846155, 360)"><path d="M 0,0 V -147.10963455149502 H 50 V 0 H 0 Z" style="fill: #ee5252;"></path><path d="M 0,-147.10963455149502 L 20,-167.10963455149502 H 70 L 50,-147.10963455149502 Z" style="fill: #b23b3b;"></path><path d="M 50,0 L 70,-20, V -167.10963455149502 L 50,-147.10963455149502 Z" style="fill: #b23b3b;"></path></g><g transform="translate(269.2307692307693, 360)"><path d="M 0,0 V -169.83388704318935 H 50 V 0 H 0 Z" style="fill: #ee5252;"></path><path d="M 0,-169.83388704318935 L 20,-189.83388704318935 H 70 L 50,-169.83388704318935 Z" style="fill: #b23b3b;"></path><path d="M 50,0 L 70,-20, V -189.83388704318935 L 50,-169.83388704318935 Z" style="fill: #b23b3b;"></path></g><g transform="translate(376.92307692307696, 360)"><path d="M 0,0 V -28.704318936877087 H 50 V 0 H 0 Z" style="fill: #ee5252;"></path><path d="M 0,-28.704318936877087 L 20,-48.70431893687709 H 70 L 50,-28.704318936877087 Z" style="fill: #b23b3b;"></path><path d="M 50,0 L 70,-20, V -48.70431893687709 L 50,-28.704318936877087 Z" style="fill: #b23b3b;"></path></g><g transform="translate(484.61538461538464, 360)"><path d="M 0,0 V -289.43521594684387 H 50 V 0 H 0 Z" style="fill: #ee5252;"></path><path d="M 0,-289.43521594684387 L 20,-309.43521594684387 H 70 L 50,-289.43521594684387 Z" style="fill: #b23b3b;"></path><path d="M 50,0 L 70,-20, V -309.43521594684387 L 50,-289.43521594684387 Z" style="fill: #b23b3b;"></path></g><g transform="translate(592.3076923076924, 360)"><path d="M 0,0 V -157.87375415282392 H 50 V 0 H 0 Z" style="fill: #ee5252;"></path><path d="M 0,-157.87375415282392 L 20,-177.87375415282392 H 70 L 50,-157.87375415282392 Z" style="fill: #b23b3b;"></path><path d="M 50,0 L 70,-20, V -177.87375415282392 L 50,-157.87375415282392 Z" style="fill: #b23b3b;"></path></g></g></svg>