<svg width="400" height="300" viewBox="-35 -25 550 550" xmlns="http://www.w3.org/2000/svg"><g transform="translate(155,130)"><g transform="translate(0, 260)" fill="none" font-size="10" font-family="sans-serif" text-anchor="middle"><path class="domain" stroke="currentColor" d="M0.5,6V0.5H310.5V6"></path><g class="tick" opacity="1" transform="translate(0.5,0)"><line stroke="currentColor" y2="6"></line><text fill="currentColor" y="9" dy="0.71em">1,880</text></g><g class="tick" opacity="1" transform="translate(46.425925925925924,0)"><line stroke="currentColor" y2="6"></line><text fill="currentColor" y="9" dy="0.71em">1,900</text></g><g class="tick" opacity="1" transform="translate(92.35185185185185,0)"><line stroke="currentColor" y2="6"></line><text fill="currentColor" y="9" dy="0.71em">1,920</text></g><g class="tick" opacity="1" transform="translate(138.27777777777777,0)"><line stroke="currentColor" y2="6"></line><text fill="currentColor" y="9" dy="0.71em">1,940</text></g><g class="tick" opacity="1" transform="translate(184.2037037037037,0)"><line stroke="currentColor" y2="6"></line><text fill="currentColor" y="9" dy="0.71em">1,960</text></g><g class="tick" opacity="1" transform="translate(230.12962962962962,0)"><line stroke="currentColor" y2="6"></line><text fill="currentColor" y="9" dy="0.71em">1,980</text></g><g class="tick" opacity="1" transform="translate(276.05555555555554,0)"><line stroke="currentColor" y2="6"></line><text fill="currentColor" y="9" dy="0.71em">2,000</text></g></g><g fill="none" font-size="10" font-family="sans-serif" text-anchor="end"><path class="domain" stroke="currentColor" d="M-6,260.5H0.5V0.5H-6"></path><g class="tick" opacity="1" transform="translate(0,260.5)"><line stroke="currentColor" x2="-6"></line><text fill="currentColor" x="-9" dy="0.32em">0</text></g><g class="tick" opacity="1" transform="translate(0,234.41653290529695)"><line stroke="currentColor" x2="-6"></line><text fill="currentColor" x="-9" dy="0.32em">10,000</text></g><g class="tick" opacity="1" transform="translate(0,208.33306581059392)"><line stroke="currentColor" x2="-6"></line><text fill="currentColor" x="-9" dy="0.32em">20,000</text></g><g class="tick" opacity="1" transform="translate(0,182.24959871589087)"><line stroke="currentColor" x2="-6"></line><text fill="currentColor" x="-9" dy="0.32em">30,000</text></g><g class="tick" opacity="1" transform="translate(0,156.1661316211878)"><line stroke="currentColor" x2="-6"></line><text fill="currentColor" x="-9" dy="0.32em">40,000</text></g><g class="tick" opacity="1" transform="translate(0,130.08266452648476)"><line stroke="currentColor" x2="-6"></line><text fill="currentColor" x="-9" dy="0.32em">50,000</text></g><g class="tick" opacity="1" transform="translate(0,103.99919743178171)"><line stroke="currentColor" x2="-6"></line><text fill="currentColor" x="-9" dy="0.32em">60,000</text></g><g class="tick" opacity="1" transform="translate(0,77.91573033707864)"><line stroke="currentColor" x2="-6"></line><text fill="currentColor" x="-9" dy="0.32em">70,000</text></g><g class="tick" opacity="1" transform="translate(0,51.832263242375596)"><line stroke="currentColor" x2="-6"></line><text fill="currentColor" x="-9" dy="0.32em">80,000</text></g><g class="tick" opacity="1" transform="translate(0,25.74879614767255)"><line stroke="currentColor" x2="-6"></line><text fill="currentColor" x="-9" dy="0.32em">90,000</text></g></g><path fill="none" stroke="#1b9e77" stroke-width="1.5" d="M0,258.34109149277685L2.2962962962962963,258.4036918138042L4.592592592592593,257.81420545746386L6.888888888888889,257.7516051364366L9.185185185185185,257.4281701444623L11.481481481481481,257.04213483146066L13.777777777777779,256.69522471910113L16.074074074074073,256.33527287319424L18.37037037037037,255.18238362760835L20.666666666666668,255.0206661316212L22.962962962962962,253.96950240770465L25.25925925925926,253.69562600321026L27.555555555555557,252.3418940609952L29.85185185185185,251.525481540931L32.148148148148145,250.41171749598715L34.44444444444444,249.50662118780096L36.74074074074074,248.5441412520064L39.03703703703703,248.2128812199037L41.333333333333336,246.35834670947028L43.62962962962963,246.8330658105939L45.925925925925924,243.45525682182986L48.22222222222222,246.3140048154093L50.51851851851852,244.4359951845907L52.81481481481482,244.0134430176565L55.111111111111114,243.07704654895664L57.407407407407405,242.23455056179776L59.7037037037037,241.2825040128411L62,240.23134028892454L64.29629629629629,237.9881621187801L66.5925925925926,235.87279293739968L68.88888888888889,232.66713483146066L71.18518518518519,229.21629213483146L73.48148148148148,217.91954253611556L75.77777777777777,210.7309390048154L78.07407407407406,199.43158105939003L80.37037037037037,179.49077046548956L82.66666666666667,174.80878812199037L84.96296296296296,170.66673354735153L87.25925925925927,165.70826645264847L89.55555555555554,172.08567415730337L91.85185185185185,168.45224719101125L94.14814814814815,169.17997592295347L96.44444444444444,175.21047351524876L98.74074074074075,177.85794542536115L101.03703703703704,178.6378410914928L103.33333333333333,183.91974317817014L105.62962962962963,189.87720706260032L107.92592592592592,193.96709470304975L110.22222222222223,200.17495987158907L112.51851851851852,205.2690609951846L114.81481481481481,208.05738362760837L117.11111111111111,213.94442215088282L119.4074074074074,217.28832263242373L121.70370370370371,221.8007624398074L124,223.22491974317816L126.29629629629629,226.67054574638843L128.59259259259258,228.09470304975923L130.88888888888889,230.12921348314606L133.1851851851852,231.7437800963082L135.4814814814815,232.82885232744783L137.77777777777777,233.3922552166934L140.07407407407408,234.20605939004815L142.37037037037038,233.88262439807383L144.66666666666666,234.44081059390047L146.96296296296296,237.32564205457464L149.25925925925924,238.35072231139648L151.55555555555554,236.91091492776886L153.85185185185185,236.5822632423756L156.14814814814812,238.3376805778491L158.44444444444443,239.89225521669343L160.74074074074073,241.58507223113966L163.03703703703704,241.88503210272873L165.33333333333334,243.12399678972713L167.62962962962962,244.03691813804173L169.92592592592592,244.5064205457464L172.22222222222223,245.40369181380416L174.51851851851853,246.23053772070625L176.81481481481484,246.91914125200643L179.1111111111111,247.57644462279293L181.4074074074074,248.580658105939L183.7037037037037,249.38663723916534L186,249.94482343499197L188.2962962962963,250.64386035313L190.59259259259258,251.28812199036918L192.88888888888889,251.9271669341894L195.1851851851852,252.68619582664527L197.4814814814815,253.6121589085072L199.7777777777778,254.38422953451044L202.07407407407408,255.09369983948636L204.37037037037035,255.15630016051364L206.66666666666666,255.52668539325842L208.96296296296296,256.2413723916533L211.25925925925927,256.75260834670945L213.55555555555554,257.04474317817017L215.85185185185185,257.02648475120384L218.14814814814815,257.2429775280899L220.44444444444446,257.542937399679L222.74074074074076,257.41252006420547L225.03703703703704,257.5951043338684L227.33333333333331,257.70726324237563L229.62962962962962,257.6290128410915L231.92592592592592,257.66292134831457L234.22222222222223,257.7176966292135L236.5185185185185,257.7985553772071L238.8148148148148,257.759430176565L241.11111111111111,257.8898475120385L243.40740740740742,258.00200642054574L245.70370370370372,257.87419743178174L248,257.9785313001605L250.2962962962963,257.76464686998395L252.59259259259258,257.7542134831461L254.88888888888889,257.98374799357947L257.18518518518516,257.84289727126804L259.48148148148147,257.73595505617976L261.77777777777777,257.7881219903692L264.0740740740741,257.81681380417336L266.3703703703704,257.65248796147677L268.6666666666667,257.8820224719101L270.962962962963,257.8298555377207L273.2592592592593,257.80638041733545L275.55555555555554,257.67857142857144L277.85185185185185,257.69422150882826L280.14814814814815,257.7176966292135L282.44444444444446,257.95766452648473L284.74074074074076,257.75682182985554L287.03703703703707,257.4959871589085L289.3333333333333,257.52728731942216L291.6296296296296,257.57162921348316L293.9259259259259,257.69422150882826L296.22222222222223,257.84550561797755L298.5185185185185,258.1663322632424L300.8148148148148,258.09851524879616L303.1111111111111,257.9863563402889L305.4074074074074,258.07504012841093L307.7037037037037,257.9107142857143L310,258.02548154093097"></path><path fill="none" stroke="#d95f02" stroke-width="1.5" d="M0,259.3713884430177L2.2962962962962963,259.3140048154093L4.592592592592593,259.2487961476726L6.888888888888889,259.25140449438203L9.185185185185185,259.1209871589085L11.481481481481481,259.11577046548956L13.777777777777779,259.034911717496L16.074074074074073,259.11837881219907L18.37037037037037,258.946227929374L20.666666666666668,258.9227528089888L22.962962962962962,258.97752808988764L25.25925925925926,259.0323033707865L27.555555555555557,258.81320224719104L29.85185185185185,258.990569823435L32.148148148148145,258.9097110754414L34.44444444444444,258.8758025682183L36.74074074074074,259.0427367576244L39.03703703703703,259.0766452648475L41.333333333333336,259.0323033707865L43.62962962962963,259.14967897271265L45.925925925925924,259.0166532905297L48.22222222222222,259.17315409309793L50.51851851851852,259.21488764044943L52.81481481481482,259.3557383627608L55.111111111111114,259.2331460674157L57.407407407407405,259.18880417335475L59.7037037037037,259.3218298555377L62,259.256621187801L64.29629629629629,259.3218298555377L66.5925925925926,259.2931380417335L68.88888888888889,259.27487961476726L71.18518518518519,259.2696629213483L73.48148148148148,259.1914125200642L75.77777777777777,259.0975120385233L78.07407407407406,259.02186998394865L80.37037037037037,258.9253611556982L82.66666666666667,258.901886035313L84.96296296296296,258.8392857142857L87.25925925925927,258.9644863563403L89.55555555555554,259.01143659711073L91.85185185185185,259.01143659711073L94.14814814814815,258.97752808988764L96.44444444444444,259.11055377207066L98.74074074074075,259.05577849117174L101.03703703703704,259.11055377207066L103.33333333333333,259.1914125200642L105.62962962962963,259.1914125200642L107.92592592592592,259.38964686998395L110.22222222222223,259.3557383627608L112.51851851851852,259.45485553772073L114.81481481481481,259.4887640449438L117.11111111111111,259.45485553772073L119.4074074074074,259.4444221508828L121.70370370370371,259.4809390048154L124,259.5070224719101L126.29629629629629,259.4496388443018L128.59259259259258,259.4991974317817L130.88888888888889,259.54093097913324L133.1851851851852,259.4991974317817L135.4814814814815,259.517455858748L137.77777777777777,259.43138041733545L140.07407407407408,259.41833868378814L142.37037037037038,259.23053772070625L144.66666666666666,259.25922953451044L146.96296296296296,259.3792134831461L149.25925925925924,259.2696629213483L151.55555555555554,259.2853130016051L153.85185185185185,259.1914125200642L156.14814814814812,259.20184590690207L158.44444444444443,259.1314205457464L160.74074074074073,259.01143659711073L163.03703703703704,258.93318619582664L165.33333333333334,258.9097110754414L167.62962962962962,258.8836276083467L169.92592592592592,258.8836276083467L172.22222222222223,258.82102728731945L174.51851851851853,258.3228330658106L176.81481481481484,258.2602327447833L179.1111111111111,257.92375601926165L181.4074074074074,257.7620385232745L183.7037037037037,257.4516452648475L186,257.2429775280899L188.2962962962963,257.52728731942216L190.59259259259258,257.3003611556982L192.88888888888889,256.67435794542536L195.1851851851852,255.696227929374L197.4814814814815,253.92516051364365L199.7777777777778,253.05397271268058L202.07407407407408,253.66171749598718L204.37037037037035,252.65228731942213L206.66666666666666,250.7403691813804L208.96296296296296,249.21970304975923L211.25925925925927,249.09450240770465L213.55555555555554,245.3228330658106L215.85185185185185,240.5L218.14814814814815,226.99658908507223L220.44444444444446,219.33326645264847L222.74074074074076,212.31942215088282L225.03703703703704,206.4715088282504L227.33333333333331,176.72331460674158L229.62962962962962,166.57162921348313L231.92592592592592,170.3432985553772L234.22222222222223,170.76845906902085L236.5185185185185,171.9578651685393L238.8148148148148,171.56139646869985L241.11111111111111,158.1440609951846L243.40740740740742,154.30457463884431L245.70370370370372,151.00762439807383L248,157.098113964687L250.2962962962963,163.94241573033707L252.59259259259258,170.25983146067418L254.88888888888889,184.6526886035313L257.18518518518516,194.70264847512038L259.48148148148147,205.7229133226324L261.77777777777777,211.18479133226325L264.0740740740741,217.36657303370785L266.3703703703704,223.55357142857142L268.6666666666667,228.07644462279293L270.962962962963,231.5481540930979L273.2592592592593,234.59209470304975L275.55555555555554,237.6986356340289L277.85185185185185,241.83808186195827L280.14814814814815,244.00561797752806L282.44444444444446,246.07403691813803L284.74074074074076,247.8007624398074L287.03703703703707,249.3370786516854L289.3333333333333,251.24899678972713L291.6296296296296,252.0758426966292L293.9259259259259,253.63824237560192L296.22222222222223,254.908507223114L298.5185185185185,255.68318619582664L300.8148148148148,256.3248394863563L303.1111111111111,256.79695024077046L305.4074074074074,257.2247191011236L307.7037037037037,257.26645264847514L310,257.3577447833066"></path><path fill="none" stroke="#7570b3" stroke-width="1.5" d="M0,259.694823434992L2.2962962962962963,259.7078651685393L4.592592592592593,259.67917335473516L6.888888888888889,259.68699839486356L9.185185185185185,259.6243980738363L11.481481481481481,259.5957062600321L13.777777777777779,259.56440609951846L16.074074074074073,259.5357142857143L18.37037037037037,259.44181380417336L20.666666666666668,259.5070224719101L22.962962962962962,259.4365971107544L25.25925925925926,259.3766051364366L27.555555555555557,259.3348715890851L29.85185185185185,259.22271268057784L32.148148148148145,259.22271268057784L34.44444444444444,259.0870786516854L36.74074074074074,259.10794542536115L39.03703703703703,259.0427367576244L41.333333333333336,258.901886035313L43.62962962962963,258.9305778491172L45.925925925925924,258.2680577849117L48.22222222222222,258.7636436597111L50.51851851851852,258.48715890850724L52.81481481481482,258.4454253611557L55.111111111111114,258.1558988764045L57.407407407407405,257.89506420545746L59.7037037037037,257.74378009630817L62,257.34470304975923L64.29629629629629,257.0577849117175L66.5925925925926,257.1777688603531L68.88888888888889,256.37700642054574L71.18518518518519,256.2022471910112L73.48148148148148,254.75461476725522L75.77777777777777,254.159911717496L78.07407407407406,252.3497191011236L80.37037037037037,249.09189406099517L82.66666666666667,246.6035313001605L84.96296296296296,242.68318619582666L87.25925925925927,237.0413322632424L89.55555555555554,233.63743980738363L91.85185185185185,223.43880417335473L94.14814814814815,213.9965890850722L96.44444444444444,205.50381219903693L98.74074074074075,192.20906902086676L101.03703703703704,180.1793739967897L103.33333333333333,174.401886035313L105.62962962962963,174.03150080256822L107.92592592592592,167.60714285714283L110.22222222222223,165.89606741573033L112.51851851851852,164.35453451043338L114.81481481481481,160.25943017656502L117.11111111111111,165.83346709470305L119.4074074074074,170.24418138041733L121.70370370370371,177.76926163723917L124,178.93780096308186L126.29629629629629,185.21087479935795L128.59259259259258,192.5403290529695L130.88888888888889,193.93579454253612L133.1851851851852,193.4819422150883L135.4814814814815,198.34129213483143L137.77777777777777,202.42335473515251L140.07407407407408,205.48555377207063L142.37037037037038,203.51886035313004L144.66666666666666,203.67275280898878L146.96296296296296,208.4668940609952L149.25925925925924,212.0507624398074L151.55555555555554,208.57905296950238L153.85185185185185,210.54052969502408L156.14814814814812,216.6440609951846L158.44444444444443,221.01565008025685L160.74074074074073,224.48996789727127L163.03703703703704,226.5609951845907L165.33333333333334,228.37379614767255L167.62962962962962,230.35092295345103L169.92592592592592,232.3123996789727L172.22222222222223,234.10433386837883L174.51851851851853,235.96930176565007L176.81481481481484,237.89686998394865L179.1111111111111,239.89225521669343L181.4074074074074,240.9147271268058L183.7037037037037,243.03792134831463L186,245.4454253611557L188.2962962962963,247.571227929374L190.59259259259258,249.16492776886037L192.88888888888889,249.39185393258427L195.1851851851852,250.70124398073835L197.4814814814815,252.31059390048154L199.7777777777778,253.36697431781704L202.07407407407408,254.43378812199037L204.37037037037035,254.43639646869983L206.66666666666666,254.8693820224719L208.96296296296296,255.40148475120387L211.25925925925927,256.43699839486356L213.55555555555554,256.5491573033708L215.85185185185185,257.0525682182986L218.14814814814815,257.3368780096308L220.44444444444446,257.631621187801L222.74074074074076,257.89506420545746L225.03703703703704,258.13503210272876L227.33333333333331,258.1454654895666L229.62962962962962,258.28370786516854L231.92592592592592,258.2732744783307L234.22222222222223,258.34369983948636L236.5185185185185,258.53150080256825L238.8148148148148,258.68800160513644L241.11111111111111,258.6906099518459L243.40740740740742,258.9384028892456L245.70370370370372,258.8653691813804L248,258.96970304975923L250.2962962962963,258.9592696629214L252.59259259259258,258.94101123595505L254.88888888888889,259.10012038523274L257.18518518518516,259.2279293739968L259.48148148148147,259.23836276083466L261.77777777777777,259.28270465489567L264.0740740740741,259.38964686998395L266.3703703703704,259.43398876404495L268.6666666666667,259.5070224719101L270.962962962963,259.4939807383627L273.2592592592593,259.5252808988764L275.55555555555554,259.5461476725522L277.85185185185185,259.60092295345106L280.14814814814815,259.6687399678973L282.44444444444446,259.62961476725525L284.74074074074076,259.645264847512L287.03703703703707,259.6556982343499L289.3333333333333,259.6478731942215L291.6296296296296,259.65048154093097L293.9259259259259,259.64265650080256L296.22222222222223,259.61396468699843L298.5185185185185,259.6556982343499L300.8148148148148,259.56440609951846L303.1111111111111,259.63483146067415L305.4074074074074,259.5461476725522L307.7037037037037,259.49658908507223L310,259.5148475120385"></path><path fill="none" stroke="#e7298a" stroke-width="1.5" d="M0,259.7078651685393L2.2962962962962963,259.71569020866775L4.592592592592593,259.70004012841093L6.888888888888889,259.6322231139647L9.185185185185185,259.5748394863563L11.481481481481481,259.4887640449438L13.777777777777779,259.40008025682187L16.074074074074073,259.2905296950241L18.37037037037037,259.0270866773676L20.666666666666668,259.0166532905297L22.962962962962962,258.80537720706263L25.25925925925926,258.52367576243984L27.555555555555557,258.3671749598716L29.85185185185185,257.85854735152486L32.148148148148145,257.2560192616372L34.44444444444444,257.060393258427L36.74074074074074,256.43699839486356L39.03703703703703,256.1605136436597L41.333333333333336,255.64145264847514L43.62962962962963,255.59971910112358L45.925925925925924,253.50260834670948L48.22222222222222,254.33206260032102L50.51851851851852,252.93920545746388L52.81481481481482,251.97150882825042L55.111111111111114,250.93077849117176L57.407407407407405,249.7309390048154L59.7037037037037,248.71629213483146L62,247.044341894061L64.29629629629629,245.12459871589084L66.5925925925926,243.69000802568218L68.88888888888889,240.9121187800963L71.18518518518519,236.86657303370785L73.48148148148148,227.017455858748L75.77777777777777,221.72512038523274L78.07407407407406,211.01003210272873L80.37037037037037,194.38964686998395L82.66666666666667,188.4921749598716L84.96296296296296,184.7413723916533L87.25925925925927,176.44422150882826L89.55555555555554,177.22672552166935L91.85185185185185,164.4171348314607L94.14814814814815,158.05798555377208L96.44444444444444,161.63663723916534L98.74074074074075,158.15710272873193L101.03703703703704,155.67656500802568L103.33333333333333,159.39085072231137L105.62962962962963,164.49799357945426L107.92592592592592,166.13342696629212L110.22222222222223,172.02568218298558L112.51851851851852,177.89707062600323L114.81481481481481,180.69582664526482L117.11111111111111,190.82403691813803L119.4074074074074,194.87479935794545L121.70370370370371,202.4859550561798L124,204.4943820224719L126.29629629629629,209.39807383627607L128.59259259259258,213.91573033707866L130.88888888888889,216.7770866773676L133.1851851851852,217.35874799357947L135.4814814814815,220.43138041733548L137.77777777777777,221.20345104333867L140.07407407407408,222.0198635634029L142.37037037037038,220.7913322632424L144.66666666666666,221.43559390048154L146.96296296296296,225.10553772070628L149.25925925925924,227.84430176565007L151.55555555555554,226.62359550561797L153.85185185185185,226.74097110754414L156.14814814814812,230.45786516853934L158.44444444444443,232.85754414125202L160.74074074074073,235.07724719101122L163.03703703703704,236.3109951845907L165.33333333333334,237.54735152487962L167.62962962962962,238.73154093097915L169.92592592592592,239.67837078651687L172.22222222222223,241.11296147672553L174.51851851851853,242.10152487961477L176.81481481481484,243.30397271268058L179.1111111111111,245.55236757624397L181.4074074074074,246.33747993579456L183.7037037037037,246.75742375601925L186,247.67295345104333L188.2962962962963,249.3709871589085L190.59259259259258,250.11175762439808L192.88888888888889,250.77949438202248L195.1851851851852,252.27929373996787L197.4814814814815,253.0435393258427L199.7777777777778,253.9590690208668L202.07407407407408,254.56420545746388L204.37037037037035,255.3623595505618L206.66666666666666,255.29975922953452L208.96296296296296,255.75882825040128L211.25925925925927,256.6691412520064L213.55555555555554,256.9351926163724L215.85185185185185,257.13081861958267L218.14814814814815,257.4568619582665L220.44444444444446,257.4359951845907L222.74074074074076,257.56380417335475L225.03703703703704,257.6185794542536L227.33333333333331,257.6811797752809L229.62962962962962,257.6655296950241L231.92592592592592,257.9472311396469L234.22222222222223,257.8402889245586L236.5185185185185,258.02026484751207L238.8148148148148,258.22110754414126L241.11111111111111,258.12459871589084L243.40740740740742,258.3593499197432L245.70370370370372,258.3984751203852L248,258.41412520064205L250.2962962962963,258.3828250401284L252.59259259259258,258.4454253611557L254.88888888888889,258.7010433386838L257.18518518518516,258.6749598715891L259.48148148148147,258.7584269662921L261.77777777777777,258.84711075441413L264.0740740740741,259.01926163723914L266.3703703703704,259.0870786516854L268.6666666666667,259.17837078651684L270.962962962963,259.1861958266453L273.2592592592593,259.1262038523274L275.55555555555554,259.1861958266453L277.85185185185185,259.17315409309793L280.14814814814815,259.3140048154093L282.44444444444446,259.24097110754417L284.74074074074076,259.2487961476726L287.03703703703707,259.38964686998395L289.3333333333333,259.30878812199035L291.6296296296296,259.3166131621188L293.9259259259259,259.36878009630817L296.22222222222223,259.4105136436597L298.5185185185185,259.37399678972713L300.8148148148148,259.28009630818616L303.1111111111111,259.2774879614767L305.4074074074074,259.12881219903693L307.7037037037037,259.0036115569823L310,258.96970304975923"></path><path fill="none" stroke="#66a61e" stroke-width="1.5" d="M0,259.9295746388443L2.2962962962962963,259.9008828250401L4.592592592592593,259.9060995184591L6.888888888888889,259.87219101123594L9.185185185185185,259.9139245585875L11.481481481481481,259.8434991974318L13.777777777777779,259.87219101123594L16.074074074074073,259.8695826645265L18.37037037037037,259.7991573033708L20.666666666666668,259.8069823434992L22.962962962962962,259.8591492776886L25.25925925925926,259.7965489566613L27.555555555555557,259.78350722311393L29.85185185185185,259.78611556982344L32.148148148148145,259.7548154093098L34.44444444444444,259.74959871589084L36.74074074074074,259.72873194221506L39.03703703703703,259.7887239165329L41.333333333333336,259.733948635634L43.62962962962963,259.7443820224719L45.925925925925924,259.67134831460675L48.22222222222222,259.7756821829856L50.51851851851852,259.7626404494382L52.81481481481482,259.76524879614766L55.111111111111114,259.7365569823435L57.407407407407405,259.72351524879616L59.7037037037037,259.7443820224719L62,259.733948635634L64.29629629629629,259.75742375601925L66.5925925925926,259.7261235955056L68.88888888888889,259.64265650080256L71.18518518518519,259.66091492776883L73.48148148148148,259.5070224719101L75.77777777777777,259.3792134831461L78.07407407407406,259.428772070626L80.37037037037037,259.2435794542536L82.66666666666667,259.2253210272873L84.96296296296296,259.24097110754417L87.25925925925927,259.16011235955057L89.55555555555554,259.2644462279294L91.85185185185185,259.0896869983949L94.14814814814815,259.0427367576244L96.44444444444444,259.0479534510433L98.74074074074075,258.8966693418941L101.03703703703704,258.8158105939005L103.33333333333333,258.857544141252L105.62962962962963,258.7506019261637L107.92592592592592,258.65409309791335L110.22222222222223,258.5549759229534L112.51851851851852,258.6723515248796L114.81481481481481,258.7140850722311L117.11111111111111,258.6071428571429L119.4074074074074,257.98113964686996L121.70370370370371,257.9498394863564L124,257.38904494382024L126.29629629629629,256.87780898876406L128.59259259259258,253.63824237560192L130.88888888888889,248.57544141252006L133.1851851851852,241.61898073836275L135.4814814814815,232.05417335473516L137.77777777777777,212.08988764044946L140.07407407407408,198.14305778491172L142.37037037037038,177.5475521669342L144.66666666666666,159.74297752808988L146.96296296296296,159.81079454253614L149.25925925925924,151.8475120385233L151.55555555555554,122.51926163723917L153.85185185185185,0L156.14814814814812,9.048354735152497L158.44444444444443,22.61436597110753L160.74074074074073,50.18719903691812L163.03703703703704,67.12058587479936L165.33333333333334,85.00080256821832L167.62962962962962,100.20224719101122L169.92592592592592,115.57323434991974L172.22222222222223,126.24658908507224L174.51851851851853,134.62459871589084L176.81481481481484,143.94161316211878L179.1111111111111,150.71548956661317L181.4074074074074,154.59931781701445L183.7037037037037,162.67215088282506L186,167.2106741573034L188.2962962962963,177.93619582664527L190.59259259259258,187.7096709470305L192.88888888888889,198.35694221508828L195.1851851851852,209.55718298555377L197.4814814814815,219.41412520064205L199.7777777777778,225.57243178170143L202.07407407407408,230.34831460674158L204.37037037037035,233.2696629213483L206.66666666666666,237.21869983948636L208.96296296296296,240.7530096308186L211.25925925925927,245.01243980738363L213.55555555555554,247.64947833065813L215.85185185185185,249.3449036918138L218.14814814814815,250.80557784911718L220.44444444444446,251.80718298555377L222.74074074074076,252.4123194221509L225.03703703703704,252.3418940609952L227.33333333333331,252.85573836276083L229.62962962962962,252.6835874799358L231.92592592592592,252.87921348314606L234.22222222222223,252.73053772070625L236.5185185185185,253.54955858747994L238.8148148148148,253.9121187800963L241.11111111111111,254.48856340288924L243.40740740740742,254.91111556982344L245.70370370370372,254.96849919743178L248,255.19020866773675L250.2962962962963,255.19020866773675L252.59259259259258,255.67536115569823L254.88888888888889,255.80577849117174L257.18518518518516,255.8788121990369L259.48148148148147,256.1213884430176L261.77777777777777,256.65870786516854L264.0740740740741,256.7839085072231L266.3703703703704,257.42556179775283L268.6666666666667,257.14386035313004L270.962962962963,257.4699036918138L273.2592592592593,257.65770465489567L275.55555555555554,257.7855136436597L277.85185185185185,257.81681380417336L280.14814814814815,257.99418138041733L282.44444444444446,258.0724317817014L284.74074074074076,258.10373194221506L287.03703703703707,258.0567817014446L289.3333333333333,258.1793739967897L291.6296296296296,258.2810995184591L293.9259259259259,258.40630016051364L296.22222222222223,258.56540930979133L298.5185185185185,258.7584269662921L300.8148148148148,258.7271268057785L303.1111111111111,258.8314606741573L305.4074074074074,258.8497191011236L307.7037037037037,258.77407704654894L310,258.8966693418941"></path><path fill="none" stroke="#e6ab02" stroke-width="1.5" d="M0,259.96869983948636L2.2962962962962963,259.9634831460674L4.592592592592593,259.96087479935795L6.888888888888889,259.95826645264845L9.185185185185185,259.9660914927769L11.481481481481481,259.9739165329053L13.777777777777779,259.9739165329053L16.074074074074073,259.96087479935795L18.37037037037037,259.93218298555377L20.666666666666668,259.96869983948636L22.962962962962962,259.9373996789727L25.25925925925926,259.96087479935795L27.555555555555557,259.95826645264845L29.85185185185185,259.9373996789727L32.148148148148145,259.95304975922954L34.44444444444444,259.9660914927769L36.74074074074074,259.95304975922954L39.03703703703703,259.9400080256822L41.333333333333336,259.94522471910113L43.62962962962963,259.9713081861958L45.925925925925924,259.93218298555377L48.22222222222222,259.94522471910113L50.51851851851852,259.94522471910113L52.81481481481482,259.94522471910113L55.111111111111114,259.9400080256822L57.407407407407405,259.95304975922954L59.7037037037037,259.9347913322632L62,259.94522471910113L64.29629629629629,259.9347913322632L66.5925925925926,259.93218298555377L68.88888888888889,259.9139245585875L71.18518518518519,259.9060995184591L73.48148148148148,259.91653290529695L75.77777777777777,259.89044943820227L78.07407407407406,259.83828250401285L80.37037037037037,259.72351524879616L82.66666666666667,259.76524879614766L84.96296296296296,259.76785714285717L87.25925925925927,259.76003210272876L89.55555555555554,259.8174157303371L91.85185185185185,259.78611556982344L94.14814814814815,259.7548154093098L96.44444444444444,259.8148073836276L98.74074074074075,259.6922150882825L101.03703703703704,259.6739566613162L103.33333333333333,259.78611556982344L105.62962962962963,259.6974317817015L107.92592592592592,259.7626404494382L110.22222222222223,259.66091492776883L112.51851851851852,259.5800561797753L114.81481481481481,259.56962279293737L117.11111111111111,259.5878812199037L119.4074074074074,259.4574638844302L121.70370370370371,259.3661717495987L124,259.2696629213483L126.29629629629629,259.27227126805775L128.59259259259258,259.2201043338684L130.88888888888889,259.1575040128411L133.1851851851852,258.9305778491172L135.4814814814815,258.8445024077046L137.77777777777777,258.77668539325845L140.07407407407408,258.41412520064205L142.37037037037038,258.2367576243981L144.66666666666666,257.9446227929374L146.96296296296296,256.6274077046549L149.25925925925924,256.1813804173355L151.55555555555554,253.55738362760835L153.85185185185185,244.77247191011236L156.14814814814812,230.66653290529695L158.44444444444443,209.89887640449436L160.74074074074073,184.16753611556982L163.03703703703704,150.33206260032102L165.33333333333334,130.0808587479936L167.62962962962962,123.85473515248796L169.92592592592592,117.39125200642053L172.22222222222223,123.54695024077046L174.51851851851853,135.24538523274478L176.81481481481484,155.49658908507226L179.1111111111111,174.09149277688604L181.4074074074074,182.91813804173356L183.7037037037037,194.08968699839485L186,197.1597110754414L188.2962962962963,200.2871187800963L190.59259259259258,205.06300160513646L192.88888888888889,209.6432584269663L195.1851851851852,215.44161316211878L197.4814814814815,217.61436597110756L199.7777777777778,223.46488764044943L202.07407407407408,227.95385232744783L204.37037037037035,230.82303370786516L206.66666666666666,234.29995987158907L208.96296296296296,237.3725922953451L211.25925925925927,243.62219101123597L213.55555555555554,247L215.85185185185185,248.66673354735153L218.14814814814815,251.0924959871589L220.44444444444446,252.19060995184591L222.74074074074076,253.01745585874798L225.03703703703704,253.53390850722312L227.33333333333331,254.31119582664527L229.62962962962962,254.94502407704655L231.92592592592592,255.03109951845906L234.22222222222223,255.1954253611557L236.5185185185185,255.81360353130015L238.8148148148148,256.1709470304976L241.11111111111111,256.3457062600321L243.40740740740742,256.6508828250401L245.70370370370372,256.86215890850724L248,257.24558587479936L250.2962962962963,257.19341894060994L252.59259259259258,257.1464686998395L254.88888888888889,257.3551364365971L257.18518518518516,257.6029293739968L259.48148148148147,257.9211476725522L261.77777777777777,258.069823434992L264.0740740740741,258.2784911717496L266.3703703703704,258.3489165329053L268.6666666666667,258.33587479935795L270.962962962963,258.5575842696629L273.2592592592593,258.63322632423757L275.55555555555554,258.5784510433387L277.85185185185185,258.72451845906903L280.14814814814815,258.7636436597111L282.44444444444446,258.901886035313L284.74074074074076,258.8862359550562L287.03703703703707,258.89145264847514L289.3333333333333,258.8966693418941L291.6296296296296,259.0323033707865L293.9259259259259,259.07403691813806L296.22222222222223,259.0975120385233L298.5185185185185,259.0766452648475L300.8148148148148,259.13402889245583L303.1111111111111,259.12359550561797L305.4074074074074,259.14185393258424L307.7037037037037,259.03752006420547L310,259.0975120385233"></path><path fill="none" stroke="#a6761d" stroke-width="1.5" d="M0,259.98174157303373L2.2962962962962963,259.98174157303373L4.592592592592593,259.9791332263242L6.888888888888889,259.9843499197432L9.185185185185185,259.9634831460674L11.481481481481481,259.9843499197432L13.777777777777779,259.9713081861958L16.074074074074073,259.9791332263242L18.37037037037037,259.95304975922954L20.666666666666668,259.9765248796148L22.962962962962962,259.95304975922954L25.25925925925926,259.9634831460674L27.555555555555557,259.9634831460674L29.85185185185185,259.96087479935795L32.148148148148145,259.9739165329053L34.44444444444444,259.95044141252004L36.74074074074074,259.9765248796148L39.03703703703703,259.9765248796148L41.333333333333336,259.9660914927769L43.62962962962963,259.9634831460674L45.925925925925924,259.9400080256822L48.22222222222222,259.9791332263242L50.51851851851852,259.9765248796148L52.81481481481482,259.95826645264845L55.111111111111114,259.95826645264845L57.407407407407405,259.955658105939L59.7037037037037,259.95304975922954L62,259.955658105939L64.29629629629629,259.955658105939L66.5925925925926,259.95304975922954L68.88888888888889,259.9269662921348L71.18518518518519,259.94522471910113L73.48148148148148,259.9060995184591L75.77777777777777,259.9347913322632L78.07407407407406,259.89044943820227L80.37037037037037,259.8565409309791L82.66666666666667,259.8617576243981L84.96296296296296,259.8565409309791L87.25925925925927,259.85393258426967L89.55555555555554,259.89566613162117L91.85185185185185,259.88784109149276L94.14814814814815,259.8747993579454L96.44444444444444,259.89566613162117L98.74074074074075,259.86436597110753L101.03703703703704,259.8930577849117L103.33333333333333,259.91131621187805L105.62962962962963,259.90870786516854L107.92592592592592,259.8982744783307L110.22222222222223,259.9060995184591L112.51851851851852,259.89044943820227L114.81481481481481,259.9008828250401L117.11111111111111,259.8982744783307L119.4074074074074,259.8852327447833L121.70370370370371,259.88784109149276L124,259.88001605136435L126.29629629629629,259.8774077046549L128.59259259259258,259.88784109149276L130.88888888888889,259.8121990369181L133.1851851851852,259.8695826645265L135.4814814814815,259.7991573033708L137.77777777777777,259.8408908507223L140.07407407407408,259.7887239165329L142.37037037037038,259.6687399678973L144.66666666666666,259.6843900481541L146.96296296296296,259.6765650080257L149.25925925925924,259.6556982343499L151.55555555555554,259.37399678972713L153.85185185185185,258.87841091492777L156.14814814814812,258.7427768860353L158.44444444444443,258.94101123595505L160.74074074074073,258.95144462279296L163.03703703703704,258.78451043338686L165.33333333333334,258.82102728731945L167.62962962962962,258.7088683788122L169.92592592592592,258.8940609951846L172.22222222222223,258.99317817014446L174.51851851851853,258.94101123595505L176.81481481481484,258.7584269662921L179.1111111111111,258.6201845906902L181.4074074074074,258.635834670947L183.7037037037037,258.5393258426966L186,258.25501605136435L188.2962962962963,257.7385634028892L190.59259259259258,257.0760433386838L192.88888888888889,256.9430176565008L195.1851851851852,256.0118378812199L197.4814814814815,255.65710272873193L199.7777777777778,255.4067014446228L202.07407407407408,255.1980337078652L204.37037037037035,253.5L206.66666666666666,249.50662118780096L208.96296296296296,246.01926163723917L211.25925925925927,243.80738362760835L213.55555555555554,241.1520866773676L215.85185185185185,232.21328250401285L218.14814814814815,226.27407704654897L220.44444444444446,212.0846709470305L222.74074074074076,195.2008426966292L225.03703703703704,191.90910914927767L227.33333333333331,187.54795345104336L229.62962962962962,171.5222712680578L231.92592592592592,149.07483948635632L234.22222222222223,141.46368378812198L236.5185185185185,141.89927768860352L238.8148148148148,140.40469502407706L241.11111111111111,133.90469502407706L243.40740740740742,122.62620385232744L245.70370370370372,113.95866773675763L248,125.58667736757626L250.2962962962963,135.09931781701445L252.59259259259258,138.79012841091492L254.88888888888889,146.8134028892456L257.18518518518516,159.96468699839485L259.48148148148147,168.74177367576243L261.77777777777777,176.22772873194222L264.0740740740741,187.13583467094702L266.3703703703704,196.8988764044944L268.6666666666667,205.11256019261637L270.962962962963,212.44201444622794L273.2592592592593,217.36396468699837L275.55555555555554,219.03591492776886L277.85185185185185,223.69963884430177L280.14814814814815,228.92676565008026L282.44444444444446,232.75581861958267L284.74074074074076,235.30156500802568L287.03703703703707,238.85152487961477L289.3333333333333,242.2397672552167L291.6296296296296,245.12199036918136L293.9259259259259,247.65730337078654L296.22222222222223,250.10654093097912L298.5185185185185,251.66633226324237L300.8148148148148,253.1661316211878L303.1111111111111,253.9303772070626L305.4074074074074,254.92415730337078L307.7037037037037,255.33105939004815L310,255.8866372391653"></path><path fill="none" stroke="#666666" stroke-width="1.5" d="M9.185185185185185,259.9843499197432L11.481481481481481,259.98695826645263L13.777777777777779,259.9791332263242L16.074074074074073,259.9739165329053L18.37037037037037,259.96869983948636L20.666666666666668,259.955658105939L22.962962962962962,259.9713081861958L25.25925925925926,259.96869983948636L27.555555555555557,259.94522471910113L29.85185185185185,259.9269662921348L32.148148148148145,259.9060995184591L34.44444444444444,259.90870786516854L36.74074074074074,259.9034911717496L39.03703703703703,259.87219101123594L41.333333333333336,259.8774077046549L43.62962962962963,259.85393258426967L45.925925925925924,259.76785714285717L48.22222222222222,259.82263242375603L50.51851851851852,259.778290529695L52.81481481481482,259.79394060995185L55.111111111111114,259.6765650080257L57.407407407407405,259.6843900481541L59.7037037037037,259.59048956661314L62,259.5383226324238L64.29629629629629,259.4652889245586L66.5925925925926,259.3922552166934L68.88888888888889,259.1757624398074L71.18518518518519,259.15228731942216L73.48148148148148,258.6853932584269L75.77777777777777,258.46629213483146L78.07407407407406,258.2889245585875L80.37037037037037,257.6655296950241L82.66666666666667,257.188202247191L84.96296296296296,256.2413723916533L87.25925925925927,255.40930979133228L89.55555555555554,254.40770465489567L91.85185185185185,253.4739165329053L94.14814814814815,251.17857142857144L96.44444444444444,249.82223113964687L98.74074074074075,247.47993579454254L101.03703703703704,241.8511235955056L103.33333333333333,238.88543338683786L105.62962962962963,237.59430176565007L107.92592592592592,232.47411717495987L110.22222222222223,227.83386837881218L112.51851851851852,224.45866773675763L114.81481481481481,218.92114767255217L117.11111111111111,217.045746388443L119.4074074074074,213.07323434991974L121.70370370370371,211.41954253611559L124,205.62379614767255L126.29629629629629,200.33146067415728L128.59259259259258,197.62921348314606L130.88888888888889,189.99979935794542L133.1851851851852,188.12700642054577L135.4814814814815,182.52166934189404L137.77777777777777,174.80878812199037L140.07407407407408,163.7493980738363L142.37037037037038,157.0902889245586L144.66666666666666,156.6573033707865L146.96296296296296,163.82504012841093L149.25925925925924,166.51685393258427L151.55555555555554,139.24658908507226L153.85185185185185,126.25963081861957L156.14814814814812,139.66392455858747L158.44444444444443,139.13703852327447L160.74074074074073,134.92455858747994L163.03703703703704,112.80317014446229L165.33333333333334,121.52287319422152L167.62962962962962,126.95605939004814L169.92592592592592,131.84410112359552L172.22222222222223,139.46829855537723L174.51851851851853,146.97512038523274L176.81481481481484,157.55196629213484L179.1111111111111,161.0601926163724L181.4074074074074,168.13142054574638L183.7037037037037,176.2538121990369L186,184.70485553772073L188.2962962962963,190.77969502407706L190.59259259259258,193.84450240770465L192.88888888888889,191.95605939004818L195.1851851851852,198.57082664526484L197.4814814814815,207.53310593900483L199.7777777777778,213.71227929373995L202.07407407407408,218.77247191011236L204.37037037037035,220.98695826645263L206.66666666666666,225.03772070626005L208.96296296296296,230.0926966292135L211.25925925925927,234.95465489566612L213.55555555555554,237.8890449438202L215.85185185185185,239.02889245585874L218.14814814814815,241.59550561797752L220.44444444444446,244.30557784911716L222.74074074074076,244.59249598715888L225.03703703703704,245.65930979133228L227.33333333333331,245.2602327447833L229.62962962962962,246.15228731942216L231.92592592592592,246.21488764044943L234.22222222222223,246.52267255216694L236.5185185185185,247.16171749598715L238.8148148148148,248.32764847512038L241.11111111111111,248.5284911717496L243.40740740740742,248.92495987158907L245.70370370370372,249.7935393258427L248,250.09349919743178L250.2962962962963,250.59430176565007L252.59259259259258,250.66733547351527L254.88888888888889,251.0846709470305L257.18518518518516,252.30276886035313L259.48148148148147,253.06179775280899L261.77777777777777,253.83647672552166L264.0740740740741,254.36597110754414L266.3703703703704,254.8615569823435L268.6666666666667,255.35453451043338L270.962962962963,255.5553772070626L273.2592592592593,256.0040128410915L275.55555555555554,256.36918138041733L277.85185185185185,256.8099919743178L280.14814814814815,257.0969101123595L282.44444444444446,257.36296147672556L284.74074074074076,257.3994783306581L287.03703703703707,257.71247993579453L289.3333333333333,257.9785313001605L291.6296296296296,258.108948635634L293.9259259259259,258.3593499197432L296.22222222222223,258.52889245585874L298.5185185185185,258.7506019261637L300.8148148148148,258.8862359550562L303.1111111111111,258.97231139646874L305.4074074074074,258.90710272873196L307.7037037037037,259.0166532905297L310,259.0975120385233"></path><path fill="none" stroke="#1b9e77" stroke-width="1.5" d="M84.96296296296296,259.98695826645263L133.1851851851852,259.98174157303373L140.07407407407408,259.9843499197432L142.37037037037038,259.9791332263242L144.66666666666666,259.9739165329053L146.96296296296296,259.96869983948636L149.25925925925924,259.9739165329053L151.55555555555554,259.98174157303373L153.85185185185185,259.9713081861958L156.14814814814812,259.9660914927769L158.44444444444443,259.9713081861958L160.74074074074073,259.96087479935795L163.03703703703704,259.96087479935795L165.33333333333334,259.9373996789727L167.62962962962962,259.96087479935795L169.92592592592592,259.94522471910113L172.22222222222223,259.9791332263242L174.51851851851853,259.9347913322632L176.81481481481484,259.9295746388443L179.1111111111111,259.9008828250401L181.4074074074074,259.9034911717496L183.7037037037037,259.8513242375602L186,259.79133226324234L188.2962962962963,259.75220706260035L190.59259259259258,259.7182985553772L192.88888888888889,259.5304975922954L195.1851851851852,259.43138041733545L197.4814814814815,259.3140048154093L199.7777777777778,258.99317817014446L202.07407407407408,258.58105939004815L204.37037037037035,258.3228330658106L206.66666666666666,257.5690208667737L208.96296296296296,256.96388443017656L211.25925925925927,256.9325842696629L213.55555555555554,256.73174157303373L215.85185185185185,255.75882825040128L218.14814814814815,254.81460674157304L220.44444444444446,254.02166934189407L222.74074074074076,252.94181380417334L225.03703703703704,250.91252006420547L227.33333333333331,248.39285714285717L229.62962962962962,240.96950240770465L231.92592592592592,236.8457062600321L234.22222222222223,221.2634430176565L236.5185185185185,173.16813804173353L238.8148148148148,158.90308988764045L241.11111111111111,137.38944622792937L243.40740740740742,130.43298555377208L245.70370370370372,116.94522471910112L248,129.67917335473516L250.2962962962963,135.88182182985557L252.59259259259258,141.1819823434992L254.88888888888889,146.58386837881218L257.18518518518516,159.70385232744783L259.48148148148147,169.1069422150883L261.77777777777777,181.02447833065813L264.0740740740741,190.61015248796147L266.3703703703704,198.24478330658107L268.6666666666667,205.498595505618L270.962962962963,208.16954253611556L273.2592592592593,212.70545746388444L275.55555555555554,213.05758426966293L277.85185185185185,216.89967897271268L280.14814814814815,219.990569823435L282.44444444444446,222.14767255216694L284.74074074074076,222.51805778491172L287.03703703703707,225.38723916532905L289.3333333333333,227.81300160513644L291.6296296296296,230.2048555377207L293.9259259259259,235.4763242375602L296.22222222222223,239.62620385232745L298.5185185185185,243.55176565008026L300.8148148148148,245.9201444622793L303.1111111111111,247.75120385232745L305.4074074074074,249.73354735152486L307.7037037037037,250.7481942215088L310,251.1081460674157"></path></g></svg>